HIERARCHY
ROOT root
{
	OFFSET 0.000000 0.000000 0.000000
	CHANNELS 6 Xposition Yposition Zposition Zrotation Yrotation Xrotation
	JOINT lhip
	{
		OFFSET 0.058581 -0.082280 -0.017664
		CHANNELS 3 Zrotation Yrotation Xrotation
		JOINT lknee
		{
			OFFSET 0.043451 -0.386469 0.008037
			CHANNELS 3 Zrotation Yrotation Xrotation
			JOINT lankle
			{
				OFFSET -0.014790 -0.426874 -0.037428
				CHANNELS 3 Zrotation Yrotation Xrotation
				JOINT ltoe
				{
					OFFSET 0.041054 -0.060286 0.122042
					CHANNELS 3 Zrotation Yrotation Xrotation
					End Site
					{
						OFFSET 0.000000 0.000000 0.000000
					}
				}
			}
		}
	}
	JOINT rhip
	{
		OFFSET -0.060310 -0.090513 -0.013543
		CHANNELS 3 Zrotation Yrotation Xrotation
		JOINT rknee
		{
			OFFSET -0.043257 -0.383688 -0.004843
			CHANNELS 3 Zrotation Yrotation Xrotation
			JOINT rankle
			{
				OFFSET 0.019056 -0.420046 -0.034562
				CHANNELS 3 Zrotation Yrotation Xrotation
				JOINT rtoe
				{
					OFFSET -0.034840 -0.062106 0.130323
					CHANNELS 3 Zrotation Yrotation Xrotation
					End Site
					{
						OFFSET 0.000000 0.000000 0.000000
					}
				}
			}
		}
	}
	JOINT lowerback
	{
		OFFSET 0.004439 0.124404 -0.038385
		CHANNELS 3 Zrotation Yrotation Xrotation
		JOINT upperback
		{
			OFFSET 0.004488 0.137956 0.026820
			CHANNELS 3 Zrotation Yrotation Xrotation
			JOINT chest
			{
				OFFSET -0.002265 0.056032 0.002855
				CHANNELS 3 Zrotation Yrotation Xrotation
				JOINT lowerneck
				{
					OFFSET -0.013390 0.211636 -0.033468
					CHANNELS 3 Zrotation Yrotation Xrotation
					JOINT upperneck
					{
						OFFSET 0.010113 0.088937 0.050410
						CHANNELS 3 Zrotation Yrotation Xrotation
						End Site
						{
							OFFSET 0.000000 0.000000 0.000000
						}
					}
				}
				JOINT lclavicle
				{
					OFFSET 0.071702 0.114000 -0.018898
					CHANNELS 3 Zrotation Yrotation Xrotation
					JOINT lshoulder
					{
						OFFSET 0.122921 0.045205 -0.019046
						CHANNELS 3 Zrotation Yrotation Xrotation
						JOINT lelbow
						{
							OFFSET 0.255332 -0.015649 -0.022946
							CHANNELS 3 Zrotation Yrotation Xrotation
							JOINT lwrist
							{
								OFFSET 0.265709 0.012698 -0.007375
								CHANNELS 3 Zrotation Yrotation Xrotation
								End Site
								{
									OFFSET 0.000000 0.000000 0.000000
								}
							}
						}
					}
				}
				JOINT rclavicle
				{
					OFFSET -0.082954 0.112472 -0.023707
					CHANNELS 3 Zrotation Yrotation Xrotation
					JOINT rshoulder
					{
						OFFSET -0.113228 0.046853 -0.008472
						CHANNELS 3 Zrotation Yrotation Xrotation
						JOINT relbow
						{
							OFFSET -0.260127 -0.014369 -0.031269
							CHANNELS 3 Zrotation Yrotation Xrotation
							JOINT rwrist
							{
								OFFSET -0.269108 0.006794 -0.006027
								CHANNELS 3 Zrotation Yrotation Xrotation
								End Site
								{
									OFFSET 0.000000 0.000000 0.000000
								}
							}
						}
					}
				}
			}
		}
	}
}
MOTION
Frames: 13
Frame Time: 0.033333
0.300629 0.195585 0.971993 68.130543 1.594739 87.401306 8.851934 7.165299 -8.280231 -2.143968 11.988328 24.640343 5.080946 11.047555 -14.124053 0.000000 -0.000000 0.000000 -3.131831 4.877347 -15.745556 -2.930049 2.201661 23.850344 3.699638 1.774321 -9.696785 0.000000 -0.000000 0.000000 -5.060293 1.711281 10.173310 1.884279 -1.661956 19.324634 -0.282100 2.674497 -7.688636 9.845441 11.804727 3.909144 2.634815 4.830459 -19.322619 -19.299665 -5.766699 1.138240 -64.163891 -4.988299 22.401121 156.533866 -72.634082 -129.969775 12.369795 -18.211094 -7.581138 16.336577 18.474186 8.013324 69.892502 19.770757 24.765060 -179.303648 66.448488 -160.419945 -23.255277 19.087846 -17.585032 
0.299594 0.195953 0.971757 68.706285 1.520578 87.371619 8.749764 7.139540 -8.469523 -2.242148 11.546616 24.686114 5.138338 10.991087 -14.154214 0.000000 -0.000000 0.000000 -3.253278 4.704859 -15.716788 -2.937419 2.056085 23.948516 3.643266 1.531161 -9.849125 0.000000 -0.000000 0.000000 -4.985025 1.824325 10.111331 1.793882 -1.595526 19.763792 -0.318006 2.805988 -7.784278 9.628481 12.099442 3.477459 2.627233 4.930252 -19.240352 -19.751860 -6.575899 1.077005 -63.751126 -5.491687 22.553003 157.600120 -72.193762 -130.916432 13.171863 -17.943132 -7.439498 16.624012 18.968498 8.112961 69.613123 19.554455 24.568630 -179.556668 65.495097 -160.799906 -24.815435 18.382694 -18.038674 
0.298589 0.196719 0.971419 69.261533 1.436097 87.348247 8.584301 7.019315 -8.684877 -2.250428 11.228194 24.761474 5.245988 10.889208 -14.127311 0.000000 -0.000000 0.000000 -3.402058 4.496183 -15.730904 -2.972322 1.882812 24.095325 3.574303 1.410233 -9.989814 0.000000 -0.000000 0.000000 -4.944075 1.965882 10.071632 1.736379 -1.582618 20.037406 -0.286439 2.876700 -7.728477 9.214006 12.115097 3.078626 2.789201 4.971927 -19.243714 -20.153720 -7.422678 1.127449 -63.478451 -5.994033 22.680243 158.242886 -71.689962 -131.612285 13.438758 -17.963468 -7.157175 16.961120 19.303138 8.036639 69.310102 19.439748 24.124616 -179.734960 64.686290 -161.168249 -24.580402 18.445151 -18.066177 
0.297676 0.197685 0.970995 69.724562 1.359835 87.325278 8.409162 6.823208 -8.881660 -2.199205 11.026941 24.848367 5.321216 10.798017 -14.088444 0.000000 -0.000000 0.000000 -3.545916 4.333973 -15.761641 -3.081428 1.660360 24.254244 3.566186 1.380188 -10.108404 0.000000 -0.000000 0.000000 -4.847649 2.104515 9.891095 1.650481 -1.626603 20.768341 -0.321619 2.930903 -8.032491 8.957586 12.226963 2.912165 2.856204 4.771648 -19.383376 -20.296058 -8.259764 1.268999 -63.467299 -6.458628 22.786873 158.538548 -71.206105 -131.893204 13.732706 -18.153021 -6.989188 17.019739 19.966944 8.226491 69.313320 19.327718 23.935833 -179.044728 63.785617 -160.469723 -25.058973 18.570981 -17.984984 
0.296849 0.198913 0.970624 70.078745 1.175087 87.222268 8.090422 6.693922 -8.934618 -2.128307 10.881208 24.839799 5.492088 10.734744 -14.037425 0.000000 -0.000000 0.000000 -3.794788 4.147726 -15.746599 -3.138538 1.600644 24.415528 3.591649 1.280371 -10.202450 0.000000 -0.000000 0.000000 -4.883907 2.196870 10.239840 1.581856 -1.634330 20.861638 -0.360445 2.983540 -8.349416 8.511144 11.944819 2.522479 2.967325 4.613556 -19.223204 -20.555504 -8.700370 1.508352 -63.327365 -7.015396 23.014271 159.442995 -70.783652 -132.694353 14.096316 -18.131786 -7.084244 17.434588 20.089974 8.573513 69.232322 19.425084 23.855899 -179.158735 62.991931 -160.454326 -25.337367 18.487699 -17.957368 
0.295651 0.200708 0.970013 70.365982 0.992298 87.251200 7.747586 6.427852 -9.235845 -2.016282 10.879172 24.961346 5.580906 10.668402 -13.963325 0.000000 -0.000000 0.000000 -4.067538 4.028838 -15.991552 -3.222172 1.526153 24.689803 3.582168 1.211224 -10.285966 0.000000 -0.000000 0.000000 -4.872609 2.315203 10.438850 1.470942 -1.635422 20.946333 -0.357839 3.025720 -8.356467 8.121799 12.142534 2.395068 2.970346 4.799505 -19.469686 -20.707878 -9.402987 1.405409 -63.375710 -7.355971 23.307560 159.953786 -70.309067 -133.127053 14.687683 -18.365208 -7.032505 17.411225 20.513007 8.518968 69.001302 19.459149 23.727898 -179.329207 62.139984 -160.612511 -26.127897 18.697642 -18.028136 
0.293418 0.203215 0.969216 70.833526 0.938591 87.428002 7.568044 5.961048 -9.925459 -1.956976 10.993500 25.346182 5.643413 10.596149 -13.938245 0.000000 -0.000000 0.000000 -4.298409 3.895220 -16.462410 -3.253798 1.305755 25.008265 3.503037 1.080339 -10.346402 0.000000 -0.000000 0.000000 -4.654589 2.322310 10.860713 1.347858 -1.859442 20.656384 -0.375165 3.017048 -8.270585 7.706577 12.200812 2.057550 2.897489 4.881560 -19.416238 -20.837240 -9.950879 1.300377 -63.522931 -7.782249 23.686671 160.538142 -69.780516 -133.656870 14.915128 -18.445897 -7.304395 17.471434 20.819525 8.414812 69.039216 19.324865 23.854055 -179.214473 61.143254 -160.237194 -26.062580 18.747913 -18.147506 
0.292200 0.206098 0.968567 70.840882 0.761622 87.299658 7.296446 5.938592 -9.947297 -1.966557 11.207536 25.351511 5.865965 10.477066 -13.876990 0.000000 -0.000000 0.000000 -4.639108 3.786411 -16.554773 -3.283475 1.313275 25.181804 3.567909 1.275672 -10.374318 0.000000 -0.000000 0.000000 -4.495251 2.483584 11.338189 1.200086 -1.855661 20.859672 -0.437332 3.046712 -8.269823 7.258868 12.470689 1.756800 2.726429 4.965942 -19.592517 -20.878745 -10.533816 1.171127 -63.810341 -8.409902 24.123198 161.246360 -69.225281 -134.442255 15.036742 -18.599638 -7.562160 17.663486 20.951585 8.440965 68.956546 19.439672 23.730753 -179.341885 60.079003 -160.438236 -25.338766 19.009265 -17.488204 
0.291181 0.209040 0.968126 71.111667 0.601608 87.299033 6.950493 5.779538 -10.168608 -1.943782 11.246700 25.325744 6.178301 10.485767 -13.631021 0.000000 -0.000000 0.000000 -5.051997 3.565888 -16.711252 -3.231679 1.228228 25.361208 3.592930 1.422873 -10.407989 0.000000 -0.000000 0.000000 -4.400611 2.524951 11.391268 1.083286 -2.027089 21.744531 -0.481354 3.132751 -8.655468 6.747425 12.597036 1.856372 2.670265 5.224515 -20.079779 -21.087903 -11.456510 1.320927 -63.890173 -8.992726 24.249746 161.997798 -68.641553 -135.090267 15.442692 -18.762570 -7.566055 17.655322 21.391112 8.433863 68.785523 19.456406 23.460281 -179.262740 59.100819 -160.240690 -25.503662 19.230753 -17.154618 
0.289875 0.211856 0.967981 71.503918 0.480990 87.386010 6.583278 5.472187 -10.506256 -1.867961 11.212153 25.277541 6.546842 10.546226 -13.433939 0.000000 -0.000000 0.000000 -5.471189 3.409007 -17.039675 -3.170690 1.087638 25.699962 3.806585 1.629152 -10.356633 0.000000 -0.000000 0.000000 -4.315641 2.460293 11.623689 0.942197 -2.264779 22.416719 -0.519896 3.194172 -9.188985 6.294670 12.896490 2.018222 2.601041 5.529583 -20.427236 -21.072662 -12.196150 1.494603 -64.377260 -9.357484 24.627992 162.383180 -68.163611 -135.021973 16.152907 -18.914941 -7.368287 17.693322 21.769591 8.662511 68.740843 19.530787 23.394751 -178.894154 58.273399 -159.512092 -25.946032 19.661621 -16.821534 
0.288097 0.213916 0.967616 71.930557 0.725363 87.648868 6.736276 5.360958 -11.137653 -1.845165 11.139817 25.444325 6.609731 10.339725 -13.396166 0.000000 -0.000000 0.000000 -5.483457 3.503836 -17.604070 -3.121432 0.812266 26.174334 4.042021 1.860658 -10.250555 0.000000 -0.000000 0.000000 -3.925048 2.275492 11.950857 0.887103 -2.318839 22.256510 -0.488876 3.254855 -9.157161 5.763020 13.723090 2.168360 2.295958 6.035428 -20.483836 -20.997123 -12.932449 1.669745 -65.111578 -9.647638 24.866753 162.550943 -67.923469 -134.755820 16.407113 -19.255276 -7.460823 17.561067 22.122359 8.888986 68.709524 19.597261 22.947899 -178.912228 57.493779 -158.966358 -25.989049 19.921764 -16.504125 
0.286002 0.214936 0.967613 72.445934 0.913852 87.834505 6.921059 5.188223 -11.605626 -1.829759 11.142197 25.486263 6.617472 10.138304 -13.276132 0.000000 -0.000000 0.000000 -5.481570 3.656211 -18.094885 -3.039455 0.634324 26.762503 4.195042 2.220450 -10.213554 0.000000 -0.000000 0.000000 -3.667875 2.248976 12.309839 0.881496 -2.295814 22.388763 -0.384559 3.270957 -9.318037 5.056259 14.837934 2.182651 1.793795 6.880116 -20.414105 -20.915918 -13.778931 1.865094 -65.843458 -9.860567 25.096877 162.203378 -67.768410 -134.041747 16.300256 -19.625783 -7.743263 17.419075 22.438895 9.018523 68.681250 19.884498 22.271019 -178.724308 56.894239 -158.434762 -24.479994 21.168932 -15.935425 
0.283940 0.214188 0.967541 73.012583 1.047331 88.008315 7.150907 5.080754 -12.033486 -1.860856 10.989104 25.537243 6.555797 9.847714 -13.167766 0.000000 -0.000000 0.000000 -5.355762 3.877849 -18.576438 -3.038817 0.603232 27.423116 4.293096 2.383797 -10.340985 0.000000 -0.000000 0.000000 -3.542933 2.250763 12.888327 0.823669 -2.203690 21.898754 -0.250832 3.366850 -9.221430 4.373652 16.068671 2.473912 1.318951 7.765680 -20.561186 -20.757061 -14.470026 2.074708 -66.554163 -9.950422 25.395854 161.973266 -67.761773 -133.554099 16.978303 -19.612539 -8.163570 17.445374 22.754333 9.294457 68.574982 19.923414 21.834432 -178.570473 56.412880 -157.794586 -24.574138 21.470400 -15.537587 
